<?xml version="1.0" encoding="UTF-8" standalone="no"?>
<!DOCTYPE svg PUBLIC "-//W3C//DTD SVG 1.1//EN"
"http://www.w3.org/Graphics/SVG/1.1/DTD/svg11.dtd">
<svg viewBox="0 0 1466 825" version="1.1" xmlns="http://www.w3.org/2000/svg" xmlns:xlink="http://www.w3.org/1999/xlink">
<defs>
</defs>
<image x="0" y="0" width="1467" height="825" xlink:href="img/1.png" />
<image x="0" y="25" width="184" height="139" xlink:href="img/2.png" />
<image x="1230" y="0" width="237" height="158" xlink:href="img/3.png" />
<image x="0" y="226" width="408" height="135" xlink:href="img/4.png" />
<image x="1111" y="0" width="120" height="39" xlink:href="img/5.png" />
<image x="1083" y="690" width="384" height="135" xlink:href="img/6.png" />
<image x="0" y="689" width="202" height="135" xlink:href="img/7.png" />
<image x="1083" y="416" width="384" height="262" xlink:href="img/8.png" />
<image x="0" y="420" width="408" height="141" xlink:href="img/9.png" />
<image x="203" y="689" width="445" height="135" xlink:href="img/10.png" />
<image x="425" y="226" width="643" height="335" xlink:href="img/11.png" />
<image x="351" y="507" width="51" height="52" xlink:href="img/12.png" />
<image x="1083" y="226" width="384" height="180" xlink:href="img/13.png" />
<image x="649" y="689" width="138" height="136" xlink:href="img/14.png" />
<image x="786" y="689" width="159" height="136" xlink:href="img/15.png" />
<image x="947" y="688" width="137" height="138" xlink:href="img/16.png" />
</svg>